<svg xmlns="http://www.w3.org/2000/svg" viewBox="0 0 488 485"><style>.st0{fill:none;stroke:#fffbfb;stroke-miterlimit:10}</style><g id="circle-l1"><g id="Layer_2_1_"><path class="st0" d="M289.7 473.3c-114.6 38.6-227-46.8-265.6-161.4S50.4 49.3 165 10.7 428.2 72 466.7 186.6s-62.4 248.2-177 286.7z" id="home"/></g></g><g id="circle-l2"><g id="Layer_2_2_"><path class="st0" d="M445.9 361.8c-47.5 111.2-186 138.3-297.2 90.8s-172.6-192.1-131-305.7C88.1-44.9 289.9 6.5 401.1 54.1s92.3 196.4 44.8 307.7z" id="reservations"/></g></g><g id="circle-l3"><g id="Layer_2_3_"><path class="st0" d="M372.3 449.5c-114.6 38.6-329.1 8.2-355.8-109.7C-32.7 122.5 162.6 66.1 277.3 27.5s143.4 72.3 181.9 186.9 27.7 196.5-86.9 235.1z" id="home_1_"/></g></g><g id="circle-l4"><g id="Layer_2_4_"><path class="st0" d="M325.6 465.5C211 504.1 47.5 445.7 20.8 327.8-28.4 110.5 167 54.1 281.6 15.5S425 87.8 463.5 202.4s-23.3 224.5-137.9 263.1z" id="home_2_"/></g></g><g id="circle-l5"><g id="Layer_2_5_"><path class="st0" d="M325.6 465.5C211 504.1 47.5 445.7 20.8 327.8-28.4 110.5 167 54.1 281.6 15.5S425 87.8 463.5 202.4s-23.3 224.5-137.9 263.1z" id="home_3_"/></g></g></svg>