<svg xmlns="http://www.w3.org/2000/svg" viewBox="0 0 250 230"><style>.st0{fill:none;stroke:#fffdfd;stroke-miterlimit:10}</style><g id="circle-md1"><g id="Layer_2_1_"><path class="st0" d="M229.3 171.5c-23.5 54.9-91.9 68.3-146.8 44.8s-88.1-96-64.7-150.9S127-11.5 181.9 12s70.8 104.6 47.4 159.5z" id="home_768"/></g></g><g id="circle-md2"><g id="Layer_2_9_"><path class="st0" d="M230.3 138.4c-23.5 54.9-108.5 103.7-163.4 80.2S-.2 124.3 23.3 69.4s88.1-78.6 143-55.1 87.5 69.2 64 124.1z" id="home_768_4_"/></g></g><g id="circle-md3"><g id="Layer_2_3_"><path class="st0" d="M230.4 177.6c-23.5 54.9-87.2 40-146.8 44.8C12 228.2-9.4 124.1 19 71.5 66-15.8 137.1 3.8 192 27.2s61.9 95.5 38.4 150.4z" id="home"/></g></g><g id="circle-md4"><g id="Layer_2_7_"><path class="st0" d="M227.4 172.4C187 216 135.5 240.7 80.6 217.2s-88.1-96-64.7-150.9S105-10.5 159.9 13 268 128.6 227.4 172.4z" id="home_2_"/></g></g><g id="circle-md5"><g id="Layer_2_5_"><path class="st0" d="M236.2 168c-23.5 54.9-88.4 29.6-146.8 44.8C31.6 227.9-27.2 95.6 24.7 61.9c50.1-32.5 102.1-60.8 157-37.3s78 88.5 54.5 143.4z" id="home_768_2_"/></g></g></svg>