<svg xmlns="http://www.w3.org/2000/svg" viewBox="0 0 255 240"><style>.st0{fill:none;stroke:#fffdfd;stroke-miterlimit:10}</style><g id="circle-sm1"><g id="Layer_2_1_"><path class="st0" d="M231.8 176.5c-23.5 54.9-91.9 68.3-146.8 44.8s-88.1-96-64.7-150.9S129.5-6.5 184.4 17s70.8 104.6 47.4 159.5z" id="home"/></g></g><g id="circle-sm2"><g id="Layer_2_2_"><path class="st0" d="M225.2 175.2c-23.5 54.9-83.5 49.1-138.4 25.6S-9.7 124 13.8 69.1s143.1-55.8 198-32.3 36.9 83.5 13.4 138.4z" id="home_1_"/></g></g><g id="circle-sm3"><g id="Layer_2_3_"><path class="st0" d="M222.5 182.2c-38.4 42.6-91 66.2-146.8 44.8-81.6-31.2-63.1-95.3-39.6-150.2s82-97 139-54.1c47.7 35.9 87.4 115.1 47.4 159.5z" id="home_2_"/></g></g><g id="circle-sm4"><g id="Layer_2_4_"><path class="st0" d="M221.3 176.8c-23.5 54.9-91.9 68.3-146.8 44.8S12.4 122.3 35.9 67.4s83.1-73.5 138-50.1 70.8 104.5 47.4 159.5z" id="home_3_"/></g></g><g id="circle-sm5"><g id="Layer_2_5_"><path class="st0" d="M237.3 158.1c-6 89-97.5 85.7-152.4 62.2-51.5-22-78.3-82.1-65.1-135.8 17.3-70.4 102-95.2 164.4-68.5 54.9 23.5 57.1 82.5 53.1 142.1z" id="home_4_"/></g></g></svg>