<svg xmlns="http://www.w3.org/2000/svg" viewBox="0 0 32.31 32.31"><defs><style>.cls-1{fill:none;stroke:#eba900;stroke-miterlimit:10}</style></defs><g id="Layer_2" data-name="Layer 2"><g id="home"><path class="cls-1" d="M17.41 21.49a5.41 5.41 0 0 0 4.08-4.08 5.48 5.48 0 0 0-6.59-6.59 5.41 5.41 0 0 0-4.08 4.08 5.48 5.48 0 0 0 6.59 6.59z"/><rect class="cls-1" x="25.36" y="4.19" width="2.81" height="2.81" rx="1.41" ry="1.41"/><path class="cls-1" d="M31.81 26a5.8 5.8 0 0 1-5.8 5.8H6.3A5.8 5.8 0 0 1 .5 26V6.3A5.8 5.8 0 0 1 6.3.5H26a5.8 5.8 0 0 1 5.8 5.8z"/><path class="cls-1" d="M18.32 25.37a9.36 9.36 0 0 0 7.05-7 9.47 9.47 0 1 0-7 7.05z"/></g></g></svg>