<svg id="Layer_1" xmlns="http://www.w3.org/2000/svg" viewBox="0 0 35.8 34.6"><style>.st1{fill:none;stroke:#eba900;stroke-miterlimit:10}</style><g id="Layer_2_1_"><path d="M34.2 11.1c4.2 8-.8 17.4-8.8 21.6s-19.8 1.2-24-6.9S2.8 5.6 10.9 1.4 30 3.1 34.2 11.1z" fill="#e8e4dd" id="home"/></g><g id="Layer_2_2_"><g id="home_1_"><path class="st1" d="M18.8 21c1.4-.3 2.5-1.4 2.8-2.8.5-2-.8-4.1-2.8-4.5-.6-.1-1.2-.1-1.7 0-1.4.3-2.5 1.4-2.8 2.8-.5 2 .8 4.1 2.8 4.5.5.1 1.1.1 1.7 0zm6.4-11.9c.5 0 1 .4 1 1 0 .5-.4 1-1 1-.5 0-1-.4-1-1s.5-1 1-1z"/><path class="st1" d="M28.7 24.1c0 2.2-1.8 4-4 4H11.1c-2.2 0-4-1.8-4-4V10.5c0-2.2 1.8-4 4-4h13.6c2.2 0 4 1.8 4 4v13.6z"/><path class="st1" d="M19.4 23.7c2.4-.5 4.3-2.4 4.9-4.8.8-3.5-1.4-7-4.9-7.8s-7 1.4-7.8 4.9c-.8 3.5 1.4 7 4.9 7.8.9.1 1.9.1 2.9-.1z"/></g></g></svg>