<?xml version="1.0" encoding="utf-8"?>
<!-- Generator: Adobe Illustrator 22.1.0, SVG Export Plug-In . SVG Version: 6.00 Build 0)  -->
<svg version="1.1" xmlns="http://www.w3.org/2000/svg" xmlns:xlink="http://www.w3.org/1999/xlink" x="0px" y="0px"
	 viewBox="0 0 488 485" style="enable-background:new 0 0 488 485;" xml:space="preserve">
<style type="text/css">
	.st0{fill:none;stroke:#FFFBFB;stroke-miterlimit:10;}
</style>
<g id="circle-l1">
	<title>Asset 7</title>
	<g id="Layer_2_1_">
		<g id="home">
			<path class="st0" d="M289.7,473.3c-114.6,38.6-227-46.8-265.6-161.4S50.4,49.3,165,10.7S428.2,72,466.7,186.6
				S404.3,434.8,289.7,473.3z"/>
		</g>
	</g>
</g>
<g id="circle-l2">
	<g id="Layer_2_2_">
		<g id="reservations">
			<path class="st0" d="M445.9,361.8c-47.5,111.2-186,138.3-297.2,90.8s-172.6-192.1-131-305.7C88.1-44.9,289.9,6.5,401.1,54.1
				S493.4,250.5,445.9,361.8z"/>
		</g>
	</g>
</g>
<g id="circle-l3">
	<g id="Layer_2_3_">
		<g id="home_1_">
			<path class="st0" d="M372.3,449.5c-114.6,38.6-329.1,8.2-355.8-109.7C-32.7,122.5,162.6,66.1,277.3,27.5s143.4,72.3,181.9,186.9
				S486.9,410.9,372.3,449.5z"/>
		</g>
	</g>
</g>
<g id="circle-l4">
	<g id="Layer_2_4_">
		<g id="home_2_">
			<path class="st0" d="M325.6,465.5C211,504.1,47.5,445.7,20.8,327.8C-28.4,110.5,167,54.1,281.6,15.5s143.4,72.3,181.9,186.9
				S440.2,426.9,325.6,465.5z"/>
		</g>
	</g>
</g>
<g id="circle-l5">
	<g id="Layer_2_5_">
		<g id="home_3_">
			<path class="st0" d="M325.6,465.5C211,504.1,47.5,445.7,20.8,327.8C-28.4,110.5,167,54.1,281.6,15.5s143.4,72.3,181.9,186.9
				S440.2,426.9,325.6,465.5z"/>
		</g>
	</g>
</g>
</svg>
