<?xml version="1.0" encoding="utf-8"?>
<!-- Generator: Adobe Illustrator 22.1.0, SVG Export Plug-In . SVG Version: 6.00 Build 0)  -->
<svg version="1.1" xmlns="http://www.w3.org/2000/svg" xmlns:xlink="http://www.w3.org/1999/xlink" x="0px" y="0px"
	 viewBox="0 0 255 240" style="enable-background:new 0 0 255 240;" xml:space="preserve">
<style type="text/css">
	.st0{fill:none;stroke:#FFFDFD;stroke-miterlimit:10;}
</style>
<g id="circle-sm1">
	<title>Asset 7</title>
	<g id="Layer_2_1_">
		<g id="home">
			<path class="st0" d="M231.8,176.5c-23.5,54.9-91.9,68.3-146.8,44.8s-88.1-96-64.7-150.9S129.5-6.5,184.4,17
				S255.2,121.6,231.8,176.5z"/>
		</g>
	</g>
</g>
<g id="circle-sm2">
	<g id="Layer_2_2_">
		<g id="home_1_">
			<path class="st0" d="M225.2,175.2c-23.5,54.9-83.5,49.1-138.4,25.6S-9.7,124,13.8,69.1s143.1-55.8,198-32.3
				S248.7,120.3,225.2,175.2z"/>
		</g>
	</g>
</g>
<g id="circle-sm3">
	<g id="Layer_2_3_">
		<g id="home_2_">
			<path class="st0" d="M222.5,182.2c-38.4,42.6-91,66.2-146.8,44.8c-81.6-31.2-63.1-95.3-39.6-150.2s82-97,139-54.1
				C222.8,58.6,262.5,137.8,222.5,182.2z"/>
		</g>
	</g>
</g>
<g id="circle-sm4">
	<g id="Layer_2_4_">
		<g id="home_3_">
			<path class="st0" d="M221.3,176.8c-23.5,54.9-91.9,68.3-146.8,44.8S12.4,122.3,35.9,67.4s83.1-73.5,138-50.1
				S244.7,121.8,221.3,176.8z"/>
		</g>
	</g>
</g>
<g id="circle-sm5">
	<g id="Layer_2_5_">
		<g id="home_4_">
			<path class="st0" d="M237.3,158.1c-6,89-97.5,85.7-152.4,62.2c-51.5-22-78.3-82.1-65.1-135.8c17.3-70.4,102-95.2,164.4-68.5
				C239.1,39.5,241.3,98.5,237.3,158.1z"/>
		</g>
	</g>
</g>
</svg>
