<?xml version="1.0" encoding="utf-8"?>
<!-- Generator: Adobe Illustrator 22.1.0, SVG Export Plug-In . SVG Version: 6.00 Build 0)  -->
<svg version="1.1" xmlns="http://www.w3.org/2000/svg" xmlns:xlink="http://www.w3.org/1999/xlink" x="0px" y="0px"
	 viewBox="0 0 250 230" style="enable-background:new 0 0 250 230;" xml:space="preserve">
<style type="text/css">
	.st0{fill:none;stroke:#FFFDFD;stroke-miterlimit:10;}
</style>
<g id="circle-md1">
	<title>circle-md1</title>
	<g id="Layer_2_1_">
		<g id="home_768">
			<path class="st0" d="M229.3,171.5c-23.5,54.9-91.9,68.3-146.8,44.8s-88.1-96-64.7-150.9S127-11.5,181.9,12
				S252.7,116.6,229.3,171.5z"/>
		</g>
	</g>
</g>
<g id="circle-md2">
	<g id="Layer_2_9_">
		<g id="home_768_4_">
			<path class="st0" d="M230.3,138.4c-23.5,54.9-108.5,103.7-163.4,80.2S-0.2,124.3,23.3,69.4s88.1-78.6,143-55.1
				S253.8,83.5,230.3,138.4z"/>
		</g>
	</g>
</g>
<g id="circle-md3">
	<g id="Layer_2_3_">
		<g id="home">
			<path class="st0" d="M230.4,177.6c-23.5,54.9-87.2,40-146.8,44.8C12,228.2-9.4,124.1,19,71.5C66-15.8,137.1,3.8,192,27.2
				S253.9,122.7,230.4,177.6z"/>
		</g>
	</g>
</g>
<g id="circle-md4">
	<g id="Layer_2_7_">
		<g id="home_2_">
			<path class="st0" d="M227.4,172.4C187,216,135.5,240.7,80.6,217.2S-7.5,121.2,15.9,66.3s89.1-76.8,144-53.3
				S268,128.6,227.4,172.4z"/>
		</g>
	</g>
</g>
<g id="circle-md5">
	<g id="Layer_2_5_">
		<g id="home_768_2_">
			<path class="st0" d="M236.2,168c-23.5,54.9-88.4,29.6-146.8,44.8C31.6,227.9-27.2,95.6,24.7,61.9c50.1-32.5,102.1-60.8,157-37.3
				S259.7,113.1,236.2,168z"/>
		</g>
	</g>
</g>
</svg>
