<?xml version="1.0" encoding="utf-8"?>
<!-- Generator: Adobe Illustrator 22.1.0, SVG Export Plug-In . SVG Version: 6.00 Build 0)  -->
<svg version="1.1" id="Layer_1" xmlns="http://www.w3.org/2000/svg" xmlns:xlink="http://www.w3.org/1999/xlink" x="0px" y="0px"
	 viewBox="0 0 35.8 34.6" style="enable-background:new 0 0 35.8 34.6;" xml:space="preserve">
<style type="text/css">
	.st0{fill:#E8E4DD;}
	.st1{fill:none;stroke:#EBA900;stroke-miterlimit:10;}
</style>
<title>Asset 1</title>
<g id="Layer_2_1_">
	<g id="home">
		<path class="st0" d="M34.2,11.1c4.2,8-0.8,17.4-8.8,21.6s-19.8,1.2-24-6.9S2.8,5.6,10.9,1.4S30,3.1,34.2,11.1z"/>
	</g>
</g>
<g id="Layer_2_2_">
	<g id="home_1_">
		<path class="st1" d="M28.6,10.8c1.1,0-0.6,0.2-2.4,2.1c0,0-0.2,6.7-3.8,10.3s-9.3,4.9-14.1,2.2c0,0,3.5-0.1,5.2-2.2
			c0,0-3-0.9-3.5-2.9c0.6,0.1,1.2,0,1.8-0.3c0,0-2.9-0.4-3.5-4.5c0.5,0.4,1.2,0.6,1.8,0.4c0,0-2.1-2.1-1.2-6.1c0,0,3.3,4.7,8.5,4.7
			c0,0,0-5.4,4.3-6c1.6-0.2,2.5,1.2,3.3,1.6C25.5,10.5,28.6,10.8,28.6,10.8z"/>
	</g>
</g>
</svg>
