<?xml version="1.0" encoding="utf-8"?>
<!-- Generator: Adobe Illustrator 22.1.0, SVG Export Plug-In . SVG Version: 6.00 Build 0)  -->
<svg version="1.1" id="Layer_1" xmlns="http://www.w3.org/2000/svg" xmlns:xlink="http://www.w3.org/1999/xlink" x="0px" y="0px"
	 viewBox="0 0 35.8 34.6" style="enable-background:new 0 0 35.8 34.6;" xml:space="preserve">
<style type="text/css">
	.st0{fill:#E8E4DD;}
	.st1{fill:none;stroke:#EBA900;stroke-miterlimit:10;}
</style>
<title>Asset 1</title>
<g id="Layer_2_1_">
	<g id="home">
		<path class="st0" d="M34.2,11.1c4.2,8-0.8,17.4-8.8,21.6s-19.8,1.2-24-6.9S2.8,5.6,10.9,1.4S30,3.1,34.2,11.1z"/>
	</g>
</g>
<g id="Layer_2_2_">
	<g id="home_1_">
		<path class="st1" d="M18.8,21c1.4-0.3,2.5-1.4,2.8-2.8c0.5-2-0.8-4.1-2.8-4.5c-0.6-0.1-1.2-0.1-1.7,0c-1.4,0.3-2.5,1.4-2.8,2.8
			c-0.5,2,0.8,4.1,2.8,4.5C17.6,21.1,18.2,21.1,18.8,21z"/>
		<path class="st1" d="M25.2,9.1L25.2,9.1c0.5,0,1,0.4,1,1l0,0c0,0.5-0.4,1-1,1h0c-0.5,0-1-0.4-1-1l0,0C24.2,9.5,24.7,9.1,25.2,9.1z
			"/>
		<path class="st1" d="M28.7,24.1c0,2.2-1.8,4-4,4H11.1c-2.2,0-4-1.8-4-4V10.5c0-2.2,1.8-4,4-4h13.6c2.2,0,4,1.8,4,4L28.7,24.1z"/>
		<path class="st1" d="M19.4,23.7c2.4-0.5,4.3-2.4,4.9-4.8c0.8-3.5-1.4-7-4.9-7.8s-7,1.4-7.8,4.9c-0.8,3.5,1.4,7,4.9,7.8
			C17.4,23.9,18.4,23.9,19.4,23.7L19.4,23.7z"/>
	</g>
</g>
</svg>
