<svg xmlns="http://www.w3.org/2000/svg" viewBox="0 0 31.25 26.69"><defs><style>.cls-1{fill:none;stroke:#eba900;stroke-miterlimit:10;}</style></defs><title>Asset 4</title><g id="Layer_2" data-name="Layer 2"><g id="home"><path class="cls-1" d="M30.25,3.73c1.55,0-.78.3-3.37,2.89,0,0-.27,9.36-5.36,14.45S8.47,28,1.77,24.12c0,0,4.93-.18,7.31-3.05,0,0-4.21-1.22-4.94-4a3.46,3.46,0,0,0,2.5-.37s-4.08-.55-4.87-6.34a2.78,2.78,0,0,0,2.56.55s-3-3-1.65-8.59c0,0,4.69,6.58,11.89,6.58,0,0-.06-7.62,6-8.35,2.3-.28,3.52,1.65,4.63,2.31C25.85,3.25,30.25,3.73,30.25,3.73Z"/></g></g></svg>